<svg xmlns="http://www.w3.org/2000/svg" viewBox="0 0 375 812" width="375" height="812">
  <defs>
    <linearGradient id="bg" x1="0%" y1="0%" x2="0%" y2="100%">
      <stop offset="0%" style="stop-color:#ffffff"/>
      <stop offset="100%" style="stop-color:#f3f4f6"/>
    </linearGradient>
  </defs>
  
  <!-- Background -->
  <rect width="375" height="812" fill="url(#bg)"/>
  
  <!-- Status Bar -->
  <text x="20" y="30" font-family="Arial" font-size="14" fill="#1f2937">🏃 ランニング日誌</text>
  <text x="100" y="30" font-family="Arial" font-size="12" fill="#6b7280">1月8日（木）</text>
  
  <!-- Title -->
  <text x="20" y="80" font-family="Arial" font-size="18" font-weight="bold" fill="#1f2937">📈 トレーニング実績</text>
  
  <!-- Filter Tabs -->
  <rect x="20" y="100" width="60" height="32" rx="16" fill="#3b82f6"/>
  <text x="50" y="121" font-family="Arial" font-size="13" fill="#ffffff" text-anchor="middle">すべて</text>
  
  <rect x="90" y="100" width="50" height="32" rx="16" fill="#f3f4f6"/>
  <text x="115" y="121" font-family="Arial" font-size="13" fill="#6b7280" text-anchor="middle">練習</text>
  
  <rect x="150" y="100" width="50" height="32" rx="16" fill="#f3f4f6"/>
  <text x="175" y="121" font-family="Arial" font-size="13" fill="#6b7280" text-anchor="middle">レース</text>
  
  <rect x="210" y="100" width="60" height="32" rx="16" fill="#f3f4f6"/>
  <text x="240" y="121" font-family="Arial" font-size="13" fill="#6b7280" text-anchor="middle">バイタル</text>
  
  <!-- Week Summary -->
  <rect x="20" y="150" width="335" height="60" rx="8" fill="#ffffff" stroke="#e5e7eb"/>
  <text x="60" y="175" font-family="Arial" font-size="14" fill="#1f2937">📅 1/5 - 1/11</text>
  <rect x="150" y="165" width="40" height="20" rx="10" fill="#dcfce7"/>
  <text x="170" y="180" font-family="Arial" font-size="10" fill="#16a34a" text-anchor="middle">今週</text>
  <text x="60" y="195" font-family="Arial" font-size="12" fill="#6b7280">2回の練習 • 11.9km</text>
  
  <!-- Entry 1 -->
  <rect x="20" y="230" width="335" height="80" rx="8" fill="#ffffff" stroke="#e5e7eb"/>
  <circle cx="50" cy="270" r="18" fill="#dcfce7"/>
  <text x="50" y="276" font-family="Arial" font-size="16" fill="#16a34a" text-anchor="middle">📉</text>
  <text x="80" y="260" font-family="Arial" font-size="13" fill="#1f2937">1/8（木）</text>
  <rect x="140" y="248" width="70" height="20" rx="10" fill="#dcfce7"/>
  <text x="175" y="262" font-family="Arial" font-size="10" fill="#16a34a" text-anchor="middle">リカバリー</text>
  <text x="80" y="290" font-family="Arial" font-size="11" fill="#6b7280">2026年1月8日のバイタルおよびトレーニ...</text>
  
  <!-- Entry 2 -->
  <rect x="20" y="330" width="335" height="80" rx="8" fill="#ffffff" stroke="#e5e7eb"/>
  <circle cx="50" cy="370" r="18" fill="#fef3c7"/>
  <text x="50" y="376" font-family="Arial" font-size="16" fill="#f59e0b" text-anchor="middle">⏱</text>
  <text x="80" y="360" font-family="Arial" font-size="13" fill="#1f2937">1/7（水）</text>
  <rect x="140" y="348" width="80" height="20" rx="10" fill="#fef3c7"/>
  <text x="180" y="362" font-family="Arial" font-size="10" fill="#f59e0b" text-anchor="middle">ワークアウト</text>
  <text x="80" y="390" font-family="Arial" font-size="11" fill="#6b7280">2026年1月7日夕方に行われた台東区周辺...</text>
  
  <!-- Entry 3 -->
  <rect x="20" y="430" width="335" height="80" rx="8" fill="#ffffff" stroke="#e5e7eb"/>
  <circle cx="50" cy="470" r="18" fill="#dcfce7"/>
  <text x="50" y="476" font-family="Arial" font-size="16" fill="#16a34a" text-anchor="middle">📉</text>
  <text x="80" y="460" font-family="Arial" font-size="13" fill="#1f2937">1/7（水）</text>
  <rect x="140" y="448" width="70" height="20" rx="10" fill="#dcfce7"/>
  <text x="175" y="462" font-family="Arial" font-size="10" fill="#16a34a" text-anchor="middle">リカバリー</text>
  <text x="80" y="490" font-family="Arial" font-size="11" fill="#6b7280">2026年1月7日のバイタルデータおよびト...</text>
  
  <!-- Entry 4 -->
  <rect x="20" y="530" width="335" height="80" rx="8" fill="#ffffff" stroke="#e5e7eb"/>
  <circle cx="50" cy="570" r="18" fill="#fef3c7"/>
  <text x="50" y="576" font-family="Arial" font-size="16" fill="#f59e0b" text-anchor="middle">⏱</text>
  <text x="80" y="560" font-family="Arial" font-size="13" fill="#1f2937">1/6（火）</text>
  <rect x="140" y="548" width="80" height="20" rx="10" fill="#fef3c7"/>
  <text x="180" y="562" font-family="Arial" font-size="10" fill="#f59e0b" text-anchor="middle">ワークアウト</text>
  <text x="80" y="590" font-family="Arial" font-size="11" fill="#6b7280">2026年1月6日17時17分に開始された、東...</text>
</svg>
